<svg width="56" height="56" viewBox="0 0 56 56" fill="none" xmlns="http://www.w3.org/2000/svg">
<path d="M45.0952 29.902C45.4027 29.696 45.6555 29.4184 45.8318 29.093C46.0081 28.7676 46.1028 28.4043 46.1075 28.0342C46.1122 27.6642 46.0269 27.2985 45.8589 26.9687C45.6909 26.639 45.4453 26.355 45.1432 26.1412L15.6679 5.17375C15.3279 4.93107 14.9279 4.78619 14.5114 4.75487C14.0949 4.72354 13.6778 4.80696 13.3053 4.99606C12.9329 5.18516 12.6194 5.47271 12.3989 5.82747C12.1784 6.18223 12.0594 6.59063 12.0547 7.0083L11.5291 48.1841C11.5255 48.6009 11.6356 49.0107 11.8475 49.3695C12.0594 49.7283 12.3651 50.0226 12.7317 50.2207C13.0984 50.4188 13.5121 50.5132 13.9284 50.4937C14.3446 50.4743 14.7477 50.3417 15.0943 50.1103L45.0952 29.902Z" fill="white"/>
</svg>
