<svg width="965" height="160" viewBox="0 0 965 160" fill="none" xmlns="http://www.w3.org/2000/svg">
<path d="M41.232 0.599999V39H36.096V12.216L24.72 39H19.296L7.536 11.976V39H2.4V0.599999H7.68L21.984 32.808L36 0.599999H41.232ZM59.8185 12.504C63.8825 12.504 66.9545 13.528 69.0345 15.576C71.1145 17.592 72.1545 20.456 72.1545 24.168V39H67.2105L68.0265 30.6H67.3065C66.6345 33.64 65.4505 35.912 63.7545 37.416C62.0905 38.92 59.9785 39.672 57.4185 39.672C54.2185 39.672 51.8345 38.968 50.2665 37.56C48.7305 36.152 47.9625 34.264 47.9625 31.896C47.9625 28.984 49.0825 26.808 51.3225 25.368C53.5945 23.896 56.8905 23.16 61.2105 23.16H67.2585C67.0345 21.336 66.2825 19.96 65.0025 19.032C63.7225 18.104 61.9945 17.64 59.8185 17.64C58.1865 17.64 56.8425 17.992 55.7865 18.696C54.7305 19.368 53.7225 20.424 52.7625 21.864L48.6345 18.984C50.0745 16.872 51.6745 15.272 53.4345 14.184C55.1945 13.064 57.3225 12.504 59.8185 12.504ZM58.0425 34.536C60.6345 34.536 62.6665 33.848 64.1385 32.472C65.6105 31.096 66.5545 29.224 66.9705 26.856H61.2105C58.4265 26.856 56.3625 27.192 55.0185 27.864C53.7065 28.536 53.0505 29.592 53.0505 31.032C53.0505 32.088 53.4665 32.936 54.2985 33.576C55.1305 34.216 56.3785 34.536 58.0425 34.536ZM104.387 0.599999V39H99.2513L99.7313 30.744H98.8673C98.2913 33.784 97.1393 36.04 95.4113 37.512C93.6833 38.984 91.4433 39.72 88.6913 39.72C86.5153 39.72 84.5153 39.128 82.6913 37.944C80.8993 36.728 79.4913 35.096 78.4673 33.048C77.4433 31 76.9313 28.792 76.9313 26.424C76.9313 23.832 77.4433 21.48 78.4673 19.368C79.4913 17.224 80.8993 15.544 82.6913 14.328C84.4833 13.08 86.4833 12.456 88.6913 12.456C91.2513 12.456 93.3953 13.208 95.1233 14.712C96.8833 16.184 98.0833 18.296 98.7233 21.048H99.7313L99.2513 12.888V0.599999H104.387ZM90.4193 34.584C91.8593 34.584 93.2033 34.2 94.4513 33.432C95.6993 32.664 96.6913 31.64 97.4273 30.36C98.1633 29.08 98.5312 27.72 98.5312 26.28C98.5312 24.68 98.1633 23.24 97.4273 21.96C96.7233 20.648 95.7473 19.624 94.4993 18.888C93.2833 18.152 91.9233 17.784 90.4193 17.784C88.8193 17.784 87.3793 18.136 86.0993 18.84C84.8513 19.544 83.8593 20.536 83.1233 21.816C82.3873 23.096 82.0193 24.568 82.0193 26.232C82.0193 27.864 82.3873 29.32 83.1233 30.6C83.8593 31.848 84.8513 32.824 86.0993 33.528C87.3793 34.232 88.8193 34.584 90.4193 34.584ZM114.412 27.768C114.732 29.88 115.612 31.576 117.052 32.856C118.524 34.104 120.348 34.728 122.524 34.728C124.188 34.728 125.692 34.392 127.036 33.72C128.38 33.016 129.5 31.992 130.396 30.648L133.996 33.144C132.78 35.288 131.164 36.92 129.148 38.04C127.164 39.16 124.956 39.72 122.524 39.72C120.06 39.72 117.804 39.112 115.756 37.896C113.74 36.68 112.14 35.032 110.956 32.952C109.804 30.84 109.228 28.536 109.228 26.04C109.228 23.576 109.804 21.304 110.956 19.224C112.14 17.144 113.756 15.496 115.804 14.28C117.852 13.064 120.092 12.456 122.524 12.456C125.148 12.456 127.452 13.128 129.436 14.472C131.452 15.784 132.972 17.608 133.996 19.944C135.052 22.28 135.516 24.888 135.388 27.768H114.412ZM122.524 17.4C120.412 17.4 118.62 18.024 117.148 19.272C115.708 20.52 114.812 22.152 114.46 24.168H130.444C130.124 22.088 129.228 20.44 127.756 19.224C126.316 18.008 124.572 17.4 122.524 17.4ZM165.27 39.72C162.806 39.72 160.566 39.112 158.55 37.896C156.566 36.648 154.998 34.968 153.846 32.856C152.726 30.744 152.166 28.424 152.166 25.896C152.166 23.4 152.726 21.112 153.846 19.032C154.998 16.92 156.566 15.256 158.55 14.04C160.566 12.792 162.806 12.168 165.27 12.168C167.702 12.168 169.91 12.792 171.894 14.04C173.878 15.256 175.43 16.92 176.55 19.032C177.702 21.112 178.278 23.4 178.278 25.896C178.278 28.424 177.702 30.744 176.55 32.856C175.43 34.968 173.878 36.648 171.894 37.896C169.942 39.112 167.734 39.72 165.27 39.72ZM165.222 34.68C167.59 34.68 169.51 33.864 170.982 32.232C172.454 30.6 173.19 28.488 173.19 25.896C173.19 23.336 172.454 21.256 170.982 19.656C169.51 18.024 167.59 17.208 165.222 17.208C162.854 17.208 160.934 18.024 159.462 19.656C157.99 21.256 157.254 23.336 157.254 25.896C157.254 28.488 157.99 30.6 159.462 32.232C160.934 33.864 162.854 34.68 165.222 34.68ZM197.504 12.216C201.056 12.216 203.728 13.288 205.52 15.432C207.312 17.544 208.208 20.904 208.208 25.512V39H203.168V25.512C203.168 20.072 200.896 17.352 196.352 17.352C193.92 17.352 191.952 18.184 190.448 19.848C188.944 21.512 188.192 23.928 188.192 27.096V39H183.056V12.888H188.192L186.896 21.048H187.856C188.4 17.816 189.456 15.544 191.024 14.232C192.592 12.888 194.752 12.216 197.504 12.216Z" fill="#0A1754"/>
<path d="M254.16 14.16C271.92 14.16 284.28 21.72 284.28 39.24C284.28 57.84 270.48 62.76 253.2 62.76H244.08V62.64V90.12C244.08 90.24 244.2 90.96 245.16 90.96C246.24 90.96 246.36 93 245.16 93H226.08C224.88 93 224.88 90.96 226.08 90.96C227.04 90.96 227.16 90.24 227.16 90.12V17.16C227.16 17.04 227.04 16.2 226.08 16.2C224.88 16.2 224.88 14.16 226.08 14.16H254.16ZM254.64 59.64C263.52 59.28 266.04 46.44 266.04 38.28C266.04 26.76 261.24 16.32 248.88 17.64C246.12 17.64 243.96 19.92 243.96 22.56V51.72C243.84 58.92 247.92 60 254.64 59.64ZM315.912 34.44C334.392 34.44 345.432 46.32 345.432 64.92C345.432 83.76 334.152 93.84 315.912 93.84C297.432 93.84 286.152 83.76 286.152 64.56C286.152 46.08 297.552 34.44 315.912 34.44ZM325.752 91.32C336.672 87.36 331.392 69.36 328.032 60.12C324.192 49.56 316.752 33 306.072 36.96C295.152 40.92 299.832 58.32 303.672 69C307.392 79.2 314.472 95.4 325.752 91.32ZM394.545 35.4C400.785 37.68 405.705 46.44 398.385 50.52C394.665 52.44 390.345 50.04 388.425 46.92C382.905 38.4 369.825 42.36 369.825 58.8V89.64C369.825 89.64 369.825 90.6 370.905 90.6C372.105 90.6 371.985 92.52 370.905 92.64C367.545 92.64 352.425 92.64 351.825 92.64C350.745 92.64 350.745 90.6 351.825 90.6C352.905 90.6 352.905 89.76 352.905 89.64V43.68C352.425 43.8 351.705 44.04 350.865 43.56C348.705 42.24 350.385 40.44 351.705 41.4C352.185 41.76 352.905 41.4 352.905 41.4L366.825 36.24C368.265 35.76 369.825 36.84 369.825 38.4V44.64C376.065 37.08 384.825 31.44 394.545 35.4ZM440.029 79.08C442.309 79.08 444.349 80.16 444.349 83.52C444.349 90.6 434.509 94.32 431.029 94.56C418.669 95.4 407.869 89.64 407.869 72.36V47.64C407.869 45.6 405.829 45.6 404.749 45.6C403.429 45.6 403.309 43.56 404.749 43.56C407.149 43.56 407.749 42.6 407.869 39.72V37.8C407.749 34.8 407.029 33.48 405.829 32.28C403.789 31.08 405.469 29.28 406.669 30.24C407.149 30.6 407.869 30.24 407.869 30.24L421.549 25.2C422.989 24.6 424.549 25.68 424.549 27.24V34.92C424.789 44.76 435.469 43.44 439.429 43.56C440.509 43.56 440.629 45.6 439.429 45.6H431.389C427.669 45.6 424.549 48.72 424.549 52.56V72.36C424.549 75.84 423.109 94.68 431.029 91.56C436.309 89.4 431.629 79.08 440.029 79.08ZM507.899 36.96C508.859 38.64 508.259 40.68 506.579 41.52C504.779 42.36 502.859 41.04 501.659 39.72C500.339 38.16 497.219 37.92 494.219 40.68C500.099 44.64 503.219 50.88 503.219 58.8C503.939 80.4 476.339 85.08 458.819 77.76V80.04C458.819 82.56 460.019 84.12 462.419 84.6L484.739 88.8C491.219 90.24 497.819 91.68 502.019 96.6C506.219 101.76 505.259 111 500.939 116.4C494.099 124.92 483.419 127.68 471.299 127.68C461.699 127.56 453.779 126.6 448.499 120.48C442.619 112.8 449.099 102.36 456.179 97.92C447.299 94.56 447.659 86.4 453.539 80.28L456.419 76.56C450.179 72.84 446.819 66.84 446.819 58.56C446.099 36.96 474.419 30.36 492.059 39.24C492.779 38.4 493.499 37.56 494.219 36.84C497.579 33 505.019 31.8 507.899 36.96ZM458.819 98.64C454.139 105 453.059 116.64 459.419 121.68C464.939 127.08 483.419 126.36 489.059 122.04C494.099 119.04 496.499 110.88 491.699 106.8C490.019 105.36 487.139 104.16 483.179 103.44L460.859 99.12C460.139 99 459.539 98.76 458.819 98.64ZM489.179 70.8C489.899 67.08 488.819 61.44 486.179 54.12C483.419 46.68 480.659 41.76 477.779 39.48C472.379 34.56 462.539 38.04 461.699 45.48C459.899 51.84 467.699 73.08 472.859 76.92C478.139 82.2 488.459 78.12 489.179 70.8ZM532.152 90.48C533.352 90.48 533.352 92.52 532.152 92.52H513.072C511.872 92.52 511.992 90.48 513.072 90.48C514.152 90.48 514.152 89.64 514.152 89.52V43.56C513.672 43.68 512.952 43.92 512.112 43.44C509.952 42.12 511.632 40.32 512.952 41.28C513.432 41.64 514.152 41.28 514.152 41.28L528.072 36.12C529.512 35.64 531.072 36.72 531.072 38.28V89.52C531.072 89.52 531.072 90.48 532.152 90.48ZM521.232 32.16C510.072 31.68 510.192 13.92 521.232 13.56C532.272 13.8 532.512 31.8 521.232 32.16ZM599.188 36.96C600.148 38.64 599.548 40.68 597.868 41.52C596.068 42.36 594.148 41.04 592.948 39.72C591.628 38.16 588.508 37.92 585.508 40.68C591.388 44.64 594.508 50.88 594.508 58.8C595.228 80.4 567.628 85.08 550.108 77.76V80.04C550.108 82.56 551.308 84.12 553.708 84.6L576.028 88.8C582.508 90.24 589.108 91.68 593.308 96.6C597.508 101.76 596.548 111 592.228 116.4C585.388 124.92 574.708 127.68 562.588 127.68C552.988 127.56 545.068 126.6 539.788 120.48C533.908 112.8 540.388 102.36 547.468 97.92C538.588 94.56 538.948 86.4 544.828 80.28L547.708 76.56C541.468 72.84 538.108 66.84 538.108 58.56C537.388 36.96 565.708 30.36 583.348 39.24C584.068 38.4 584.788 37.56 585.508 36.84C588.868 33 596.308 31.8 599.188 36.96ZM550.108 98.64C545.428 105 544.348 116.64 550.708 121.68C556.228 127.08 574.708 126.36 580.348 122.04C585.388 119.04 587.788 110.88 582.988 106.8C581.308 105.36 578.428 104.16 574.468 103.44L552.148 99.12C551.428 99 550.828 98.76 550.108 98.64ZM580.468 70.8C581.188 67.08 580.108 61.44 577.468 54.12C574.708 46.68 571.948 41.76 569.068 39.48C563.668 34.56 553.828 38.04 552.988 45.48C551.188 51.84 558.988 73.08 564.148 76.92C569.428 82.2 579.748 78.12 580.468 70.8ZM606.503 77.64C616.583 77.4 616.463 92.88 606.503 92.64C596.543 92.88 596.543 77.4 606.503 77.64ZM667.199 76.44C667.199 71.28 670.799 71.28 672.719 72.6C675.839 76.08 671.639 82.56 668.759 85.44C657.839 97.56 632.159 95.64 623.519 81.72C620.279 76.56 619.199 70.44 619.199 64.44C619.199 46.32 630.239 34.92 647.879 34.92C658.799 34.92 667.799 38.64 672.599 46.08C673.919 48.12 677.399 56.76 669.959 59.52C663.599 61.68 661.199 56.88 659.759 53.28C655.799 43.32 649.559 35.64 640.679 37.08C623.639 40.08 636.719 73.08 642.239 82.32C646.559 90 654.239 92.28 661.799 87.48C666.719 84.72 667.199 78.84 667.199 76.44ZM708.725 34.44C727.205 34.44 738.245 46.32 738.245 64.92C738.245 83.76 726.965 93.84 708.725 93.84C690.245 93.84 678.965 83.76 678.965 64.56C678.965 46.08 690.365 34.44 708.725 34.44ZM718.565 91.32C729.485 87.36 724.205 69.36 720.845 60.12C717.005 49.56 709.565 33 698.885 36.96C687.965 40.92 692.645 58.32 696.485 69C700.205 79.2 707.285 95.4 718.565 91.32ZM837.878 90.6C838.958 90.6 838.958 92.64 837.878 92.64H818.798C817.478 92.64 817.718 90.6 818.798 90.6C819.878 90.6 819.878 89.76 819.878 89.64V52.44C819.878 46.44 817.838 39.6 809.318 39.6C803.078 39.6 799.718 44.52 799.718 52.44V89.64C799.718 89.64 799.718 90.6 800.798 90.6C801.878 90.6 801.878 92.64 800.798 92.64H781.718C780.638 92.64 780.638 90.6 781.718 90.6C782.798 90.6 782.798 89.76 782.798 89.64V52.44C782.798 46.44 780.758 39.6 772.238 39.6C765.998 39.6 762.878 45 762.638 49.92V89.64C762.638 89.64 762.638 90.6 763.718 90.6C764.918 90.6 764.798 92.64 763.718 92.64H744.638C743.438 92.64 743.558 90.6 744.638 90.6C745.718 90.6 745.718 89.76 745.718 89.64V43.68C745.238 43.8 744.518 44.04 743.678 43.56C741.518 42.24 743.198 40.44 744.518 41.4C744.998 41.76 745.718 41.4 745.718 41.4L759.638 36.24C761.078 35.76 762.638 36.84 762.638 38.4V41.76C771.398 31.2 794.078 33 798.158 44.28C800.798 38.64 807.758 35.64 812.918 35.16C827.438 33.6 836.798 39.12 836.798 52.44V89.64C836.798 89.64 836.798 90.6 837.878 90.6Z" fill="#0A1754"/>
<path d="M629.26 121.52C628.58 123.013 627.633 124.133 626.42 124.88C625.22 125.627 623.807 126 622.18 126C620.7 126 619.413 125.653 618.32 124.96C617.24 124.267 616.413 123.307 615.84 122.08C615.28 120.853 615 119.467 615 117.92C615 116.373 615.28 115.007 615.84 113.82C616.413 112.62 617.24 111.687 618.32 111.02C619.4 110.34 620.687 110 622.18 110C623.86 110 625.3 110.407 626.5 111.22C627.713 112.02 628.7 113.32 629.46 115.12L626.48 116.96C626.173 115.973 625.813 115.227 625.4 114.72C625 114.2 624.547 113.853 624.04 113.68C623.533 113.507 622.913 113.42 622.18 113.42C621.1 113.42 620.2 113.76 619.48 114.44C618.76 115.107 618.4 116.267 618.4 117.92C618.4 119.707 618.773 120.933 619.52 121.6C620.28 122.253 621.233 122.58 622.38 122.58C623.367 122.58 624.153 122.373 624.74 121.96C625.327 121.547 625.813 120.78 626.2 119.66L629.26 121.52ZM640.949 110H644.329L639.009 126H635.349L630.469 110H633.849L637.249 120.72L640.949 110ZM649.928 122.4L648.928 128.6H646.328L646.928 122.4H649.928ZM660.314 126H656.934V110H663.694C665.92 110 667.787 110.36 669.294 111.08C670.8 111.8 671.554 113.207 671.554 115.3C671.554 117.1 670.774 118.353 669.214 119.06C667.667 119.767 665.827 120.12 663.694 120.12H660.314V126ZM663.694 116.9C664.68 116.9 665.454 116.853 666.014 116.76C666.574 116.667 666.987 116.5 667.254 116.26C667.52 116.007 667.654 115.64 667.654 115.16C667.654 114.68 667.52 114.313 667.254 114.06C666.987 113.807 666.567 113.633 665.994 113.54C665.434 113.447 664.667 113.4 663.694 113.4H660.314V116.9H663.694ZM676.735 118.06C676.895 116.78 677.181 115.84 677.595 115.24C678.021 114.627 678.561 114.233 679.215 114.06C679.881 113.887 680.815 113.8 682.015 113.8V117.58C681.375 117.42 680.801 117.34 680.295 117.34C679.161 117.34 678.315 117.693 677.755 118.4C677.208 119.107 676.935 120.04 676.935 121.2V126H673.555V113.78H676.935L676.335 118.06H676.735ZM689.383 126.3C688.249 126.3 687.209 126.013 686.263 125.44C685.329 124.853 684.589 124.067 684.043 123.08C683.496 122.093 683.223 121.013 683.223 119.84C683.223 118.693 683.496 117.633 684.043 116.66C684.589 115.673 685.336 114.893 686.283 114.32C687.229 113.733 688.263 113.44 689.383 113.44C690.503 113.44 691.529 113.733 692.463 114.32C693.396 114.893 694.136 115.673 694.683 116.66C695.229 117.633 695.503 118.693 695.503 119.84C695.503 121.013 695.229 122.093 694.683 123.08C694.136 124.067 693.396 124.853 692.463 125.44C691.529 126.013 690.503 126.3 689.383 126.3ZM689.363 123.02C690.243 123.02 690.936 122.72 691.443 122.12C691.949 121.52 692.203 120.767 692.203 119.86C692.203 118.967 691.949 118.22 691.443 117.62C690.936 117.02 690.243 116.72 689.363 116.72C688.496 116.72 687.803 117.027 687.283 117.64C686.776 118.24 686.523 118.98 686.523 119.86C686.523 120.753 686.776 121.507 687.283 122.12C687.803 122.72 688.496 123.02 689.363 123.02ZM702.024 117.2V119.66C702.024 120.78 702.084 121.52 702.204 121.88C702.324 122.24 702.617 122.467 703.084 122.56C703.551 122.653 704.524 122.7 706.004 122.7V126C703.604 126 701.911 125.833 700.924 125.5C699.951 125.167 699.337 124.6 699.084 123.8C698.844 123 698.724 121.62 698.724 119.66V117.2H696.504V113.8H698.724V110H702.024V113.8H706.004V117.2H702.024ZM716.588 112.8C715.854 112.8 715.301 112.827 714.928 112.88C714.554 112.92 714.268 113.013 714.068 113.16C713.868 113.293 713.734 113.507 713.668 113.8H717.508V117.2H713.528V126H710.228V117.2H708.008V113.8H710.268C710.334 112.84 710.554 112.093 710.928 111.56C711.314 111.027 712.014 110.633 713.028 110.38C714.054 110.127 715.548 110 717.508 110V112.8H716.588ZM725.066 126.3C723.933 126.3 722.893 126.013 721.946 125.44C721.013 124.853 720.273 124.067 719.726 123.08C719.18 122.093 718.906 121.013 718.906 119.84C718.906 118.693 719.18 117.633 719.726 116.66C720.273 115.673 721.02 114.893 721.966 114.32C722.913 113.733 723.946 113.44 725.066 113.44C726.186 113.44 727.213 113.733 728.146 114.32C729.08 114.893 729.82 115.673 730.366 116.66C730.913 117.633 731.186 118.693 731.186 119.84C731.186 121.013 730.913 122.093 730.366 123.08C729.82 124.067 729.08 124.853 728.146 125.44C727.213 126.013 726.186 126.3 725.066 126.3ZM725.046 123.02C725.926 123.02 726.62 122.72 727.126 122.12C727.633 121.52 727.886 120.767 727.886 119.86C727.886 118.967 727.633 118.22 727.126 117.62C726.62 117.02 725.926 116.72 725.046 116.72C724.18 116.72 723.486 117.027 722.966 117.64C722.46 118.24 722.206 118.98 722.206 119.86C722.206 120.753 722.46 121.507 722.966 122.12C723.486 122.72 724.18 123.02 725.046 123.02ZM733.184 110H736.484V126H733.184V110ZM740.842 113.44C740.349 113.44 739.929 113.273 739.582 112.94C739.249 112.607 739.082 112.2 739.082 111.72C739.082 111.24 739.249 110.833 739.582 110.5C739.929 110.167 740.349 110 740.842 110C741.309 110 741.702 110.167 742.022 110.5C742.355 110.833 742.522 111.24 742.522 111.72C742.522 112.2 742.355 112.607 742.022 112.94C741.702 113.273 741.309 113.44 740.842 113.44ZM739.162 113.8H742.462V126H739.162V113.8ZM750.691 126.3C749.558 126.3 748.518 126.013 747.571 125.44C746.638 124.853 745.898 124.067 745.351 123.08C744.805 122.093 744.531 121.013 744.531 119.84C744.531 118.693 744.805 117.633 745.351 116.66C745.898 115.673 746.645 114.893 747.591 114.32C748.538 113.733 749.571 113.44 750.691 113.44C751.811 113.44 752.838 113.733 753.771 114.32C754.705 114.893 755.445 115.673 755.991 116.66C756.538 117.633 756.811 118.693 756.811 119.84C756.811 121.013 756.538 122.093 755.991 123.08C755.445 124.067 754.705 124.853 753.771 125.44C752.838 126.013 751.811 126.3 750.691 126.3ZM750.671 123.02C751.551 123.02 752.245 122.72 752.751 122.12C753.258 121.52 753.511 120.767 753.511 119.86C753.511 118.967 753.258 118.22 752.751 117.62C752.245 117.02 751.551 116.72 750.671 116.72C749.805 116.72 749.111 117.027 748.591 117.64C748.085 118.24 747.831 118.98 747.831 119.86C747.831 120.753 748.085 121.507 748.591 122.12C749.111 122.72 749.805 123.02 750.671 123.02ZM762.409 122.4L761.409 128.6H758.809L759.409 122.4H762.409ZM772.714 119.52C772.714 120.64 772.954 121.453 773.434 121.96C773.927 122.453 774.734 122.7 775.854 122.7C776.867 122.7 777.614 122.46 778.094 121.98C778.587 121.487 778.834 120.667 778.834 119.52V110H782.134V119.52C782.134 120.987 781.941 122.193 781.554 123.14C781.167 124.073 780.507 124.787 779.574 125.28C778.654 125.76 777.387 126 775.774 126C774.161 126 772.887 125.76 771.954 125.28C771.034 124.787 770.381 124.073 769.994 123.14C769.607 122.193 769.414 120.987 769.414 119.52H772.714ZM790.301 126.3C789.167 126.3 788.127 126.013 787.181 125.44C786.247 124.853 785.507 124.067 784.961 123.08C784.414 122.093 784.141 121.013 784.141 119.84C784.141 118.693 784.414 117.633 784.961 116.66C785.507 115.673 786.254 114.893 787.201 114.32C788.147 113.733 789.181 113.44 790.301 113.44C791.421 113.44 792.447 113.733 793.381 114.32C794.314 114.893 795.054 115.673 795.601 116.66C796.147 117.633 796.421 118.693 796.421 119.84C796.421 121.013 796.147 122.093 795.601 123.08C795.054 124.067 794.314 124.853 793.381 125.44C792.447 126.013 791.421 126.3 790.301 126.3ZM790.281 123.02C791.161 123.02 791.854 122.72 792.361 122.12C792.867 121.52 793.121 120.767 793.121 119.86C793.121 118.967 792.867 118.22 792.361 117.62C791.854 117.02 791.161 116.72 790.281 116.72C789.414 116.72 788.721 117.027 788.201 117.64C787.694 118.24 787.441 118.98 787.441 119.86C787.441 120.753 787.694 121.507 788.201 122.12C788.721 122.72 789.414 123.02 790.281 123.02ZM806.578 113.76C807.525 113.76 808.385 114.047 809.158 114.62C809.945 115.193 810.558 115.987 810.998 117C811.451 118.013 811.678 119.153 811.678 120.42C811.678 121.433 811.451 122.393 810.998 123.3C810.545 124.207 809.925 124.933 809.138 125.48C808.365 126.027 807.511 126.3 806.578 126.3C803.845 126.3 802.291 124.76 801.918 121.68H801.618L801.818 126H798.418V110H801.818V113.8L801.618 118.04H801.998C802.265 116.653 802.805 115.593 803.618 114.86C804.445 114.127 805.431 113.76 806.578 113.76ZM805.338 122.92C805.938 122.92 806.465 122.8 806.918 122.56C807.385 122.32 807.745 121.993 807.998 121.58C808.251 121.167 808.378 120.713 808.378 120.22C808.378 119.38 808.098 118.693 807.538 118.16C806.991 117.613 806.258 117.34 805.338 117.34C804.725 117.34 804.171 117.46 803.678 117.7C803.198 117.94 802.818 118.267 802.538 118.68C802.258 119.093 802.118 119.54 802.118 120.02C802.118 120.473 802.258 120.927 802.538 121.38C802.818 121.833 803.205 122.207 803.698 122.5C804.191 122.78 804.738 122.92 805.338 122.92ZM816.131 121.2C816.451 121.76 816.858 122.207 817.351 122.54C817.844 122.873 818.511 123.04 819.351 123.04C819.978 123.04 820.451 123.02 820.771 122.98C821.091 122.94 821.311 122.873 821.431 122.78C821.564 122.673 821.631 122.52 821.631 122.32C821.631 122.133 821.564 121.987 821.431 121.88C821.311 121.76 821.078 121.66 820.731 121.58C820.384 121.487 819.871 121.393 819.191 121.3L818.431 121.2C816.724 120.973 815.471 120.527 814.671 119.86C813.884 119.193 813.491 118.307 813.491 117.2C813.491 116.573 813.671 116 814.031 115.48C814.404 114.96 814.984 114.547 815.771 114.24C816.558 113.92 817.551 113.76 818.751 113.76C820.324 113.76 821.544 114.053 822.411 114.64C823.291 115.213 824.018 116.12 824.591 117.36L821.771 118.5C821.358 117.927 820.931 117.527 820.491 117.3C820.064 117.073 819.484 116.96 818.751 116.96C818.058 116.96 817.544 117.027 817.211 117.16C816.891 117.28 816.731 117.467 816.731 117.72C816.731 117.973 816.844 118.16 817.071 118.28C817.298 118.4 817.751 118.513 818.431 118.62L819.191 118.74C820.751 118.98 821.938 119.287 822.751 119.66C823.578 120.02 824.131 120.433 824.411 120.9C824.704 121.353 824.851 121.913 824.851 122.58C824.851 123.207 824.678 123.8 824.331 124.36C823.984 124.907 823.398 125.36 822.571 125.72C821.758 126.067 820.684 126.24 819.351 126.24C818.284 126.24 817.364 126.127 816.591 125.9C815.831 125.66 815.151 125.267 814.551 124.72C813.964 124.173 813.404 123.42 812.871 122.46L816.131 121.2ZM830.455 122.4L829.455 128.6H826.855L827.455 122.4H830.455ZM851.721 121.52C851.041 123.013 850.094 124.133 848.881 124.88C847.681 125.627 846.268 126 844.641 126C843.161 126 841.874 125.653 840.781 124.96C839.701 124.267 838.874 123.307 838.301 122.08C837.741 120.853 837.461 119.467 837.461 117.92C837.461 116.373 837.741 115.007 838.301 113.82C838.874 112.62 839.701 111.687 840.781 111.02C841.861 110.34 843.148 110 844.641 110C846.321 110 847.761 110.407 848.961 111.22C850.174 112.02 851.161 113.32 851.921 115.12L848.941 116.96C848.634 115.973 848.274 115.227 847.861 114.72C847.461 114.2 847.008 113.853 846.501 113.68C845.994 113.507 845.374 113.42 844.641 113.42C843.561 113.42 842.661 113.76 841.941 114.44C841.221 115.107 840.861 116.267 840.861 117.92C840.861 119.707 841.234 120.933 841.981 121.6C842.741 122.253 843.694 122.58 844.841 122.58C845.828 122.58 846.614 122.373 847.201 121.96C847.788 121.547 848.274 120.78 848.661 119.66L851.721 121.52ZM860.086 126.3C858.952 126.3 857.912 126.013 856.966 125.44C856.032 124.853 855.292 124.067 854.746 123.08C854.199 122.093 853.926 121.013 853.926 119.84C853.926 118.693 854.199 117.633 854.746 116.66C855.292 115.673 856.039 114.893 856.986 114.32C857.932 113.733 858.966 113.44 860.086 113.44C861.206 113.44 862.232 113.733 863.166 114.32C864.099 114.893 864.839 115.673 865.386 116.66C865.932 117.633 866.206 118.693 866.206 119.84C866.206 121.013 865.932 122.093 865.386 123.08C864.839 124.067 864.099 124.853 863.166 125.44C862.232 126.013 861.206 126.3 860.086 126.3ZM860.066 123.02C860.946 123.02 861.639 122.72 862.146 122.12C862.652 121.52 862.906 120.767 862.906 119.86C862.906 118.967 862.652 118.22 862.146 117.62C861.639 117.02 860.946 116.72 860.066 116.72C859.199 116.72 858.506 117.027 857.986 117.64C857.479 118.24 857.226 118.98 857.226 119.86C857.226 120.753 857.479 121.507 857.986 122.12C858.506 122.72 859.199 123.02 860.066 123.02ZM876.283 113.48C877.496 113.48 878.49 113.733 879.263 114.24C880.05 114.733 880.636 115.547 881.023 116.68C881.423 117.813 881.623 119.32 881.623 121.2V126H878.343V121.2C878.343 119.68 878.103 118.58 877.623 117.9C877.156 117.22 876.31 116.88 875.083 116.88C873.923 116.88 873.05 117.26 872.463 118.02C871.89 118.78 871.603 119.84 871.603 121.2V126H868.203V113.8H871.603L871.003 118.06H871.403C871.563 116.673 871.85 115.653 872.263 115C872.69 114.333 873.203 113.913 873.803 113.74C874.416 113.567 875.243 113.48 876.283 113.48ZM892.318 113.48C893.532 113.48 894.525 113.733 895.298 114.24C896.085 114.733 896.672 115.547 897.058 116.68C897.458 117.813 897.658 119.32 897.658 121.2V126H894.378V121.2C894.378 119.68 894.138 118.58 893.658 117.9C893.192 117.22 892.345 116.88 891.118 116.88C889.958 116.88 889.085 117.26 888.498 118.02C887.925 118.78 887.638 119.84 887.638 121.2V126H884.238V113.8H887.638L887.038 118.06H887.438C887.598 116.673 887.885 115.653 888.298 115C888.725 114.333 889.238 113.913 889.838 113.74C890.452 113.567 891.278 113.48 892.318 113.48ZM903.048 120.92C903.208 121.56 903.548 122.073 904.068 122.46C904.601 122.847 905.268 123.04 906.068 123.04C907.535 123.04 908.708 122.527 909.588 121.5L911.748 122.92C911.148 124.093 910.348 124.953 909.348 125.5C908.348 126.033 907.255 126.3 906.068 126.3C904.948 126.3 903.895 126.02 902.908 125.46C901.935 124.887 901.148 124.12 900.548 123.16C899.961 122.2 899.668 121.153 899.668 120.02C899.668 118.9 899.961 117.86 900.548 116.9C901.148 115.94 901.941 115.18 902.928 114.62C903.915 114.047 904.961 113.76 906.068 113.76C907.228 113.76 908.261 114.053 909.168 114.64C910.075 115.213 910.781 116.04 911.288 117.12C911.795 118.2 912.041 119.467 912.028 120.92H903.048ZM906.068 116.96C905.348 116.96 904.728 117.147 904.208 117.52C903.701 117.893 903.341 118.367 903.128 118.94H908.868C908.668 118.3 908.301 117.813 907.768 117.48C907.248 117.133 906.681 116.96 906.068 116.96ZM925.893 122.92C925.306 124.067 924.506 124.92 923.493 125.48C922.493 126.027 921.219 126.3 919.673 126.3C918.566 126.3 917.546 126.02 916.613 125.46C915.693 124.9 914.966 124.14 914.433 123.18C913.899 122.207 913.633 121.153 913.633 120.02C913.633 118.887 913.899 117.84 914.433 116.88C914.966 115.92 915.693 115.16 916.613 114.6C917.546 114.04 918.566 113.76 919.673 113.76C922.739 113.76 924.866 114.967 926.053 117.38L923.453 119.1C923.013 118.553 922.619 118.14 922.273 117.86C921.926 117.58 921.579 117.393 921.233 117.3C920.899 117.207 920.493 117.16 920.013 117.16C919.133 117.16 918.413 117.427 917.853 117.96C917.306 118.493 917.033 119.18 917.033 120.02C917.033 120.94 917.299 121.653 917.833 122.16C918.379 122.653 919.106 122.9 920.013 122.9C920.679 122.9 921.266 122.767 921.773 122.5C922.293 122.22 922.779 121.78 923.233 121.18L925.893 122.92ZM932.961 117.2V119.66C932.961 120.78 933.021 121.52 933.141 121.88C933.261 122.24 933.555 122.467 934.021 122.56C934.488 122.653 935.461 122.7 936.941 122.7V126C934.541 126 932.848 125.833 931.861 125.5C930.888 125.167 930.275 124.6 930.021 123.8C929.781 123 929.661 121.62 929.661 119.66V117.2H927.441V113.8H929.661V110H932.961V113.8H936.941V117.2H932.961Z" fill="#0A1754"/>
</svg>
