<svg width="12" height="17" viewBox="0 0 12 17" fill="none" xmlns="http://www.w3.org/2000/svg">
<g clip-path="url(#clip0_76_137)">
<path d="M0.5 4.24992H11.5C11.6326 4.24992 11.7598 4.17529 11.8536 4.04245C11.9473 3.90961 12 3.72945 12 3.54158C12 3.35372 11.9473 3.17356 11.8536 3.04072C11.7598 2.90788 11.6326 2.83325 11.5 2.83325H0.5C0.367392 2.83325 0.240215 2.90788 0.146447 3.04072C0.0526784 3.17356 0 3.35372 0 3.54158C0 3.72945 0.0526784 3.90961 0.146447 4.04245C0.240215 4.17529 0.367392 4.24992 0.5 4.24992Z" fill="#00489A"/>
<path d="M11.5 6.375H0.5C0.367392 6.375 0.240215 6.44963 0.146447 6.58247C0.0526784 6.7153 0 6.89547 0 7.08333C0 7.27119 0.0526784 7.45136 0.146447 7.5842C0.240215 7.71704 0.367392 7.79166 0.5 7.79166H11.5C11.6326 7.79166 11.7598 7.71704 11.8536 7.5842C11.9473 7.45136 12 7.27119 12 7.08333C12 6.89547 11.9473 6.7153 11.8536 6.58247C11.7598 6.44963 11.6326 6.375 11.5 6.375Z" fill="#00489A"/>
<path d="M11.5 9.91675H0.5C0.367392 9.91675 0.240215 9.99138 0.146447 10.1242C0.0526784 10.2571 0 10.4372 0 10.6251C0 10.8129 0.0526784 10.9931 0.146447 11.126C0.240215 11.2588 0.367392 11.3334 0.5 11.3334H11.5C11.6326 11.3334 11.7598 11.2588 11.8536 11.126C11.9473 10.9931 12 10.8129 12 10.6251C12 10.4372 11.9473 10.2571 11.8536 10.1242C11.7598 9.99138 11.6326 9.91675 11.5 9.91675Z" fill="#00489A"/>
</g>
<defs>
<clipPath id="clip0_76_137">
<rect width="12" height="17" fill="white"/>
</clipPath>
</defs>
</svg>
