<svg width="55" height="55" viewBox="0 0 55 55" fill="none" xmlns="http://www.w3.org/2000/svg">
<path d="M27.5 39.5312C27.1562 39.5312 26.8125 39.5312 26.6406 39.3594L18.0469 34.2031C17.5312 33.8594 17.1875 33.3438 17.1875 32.6562V22.3438C17.1875 21.6562 17.5312 21.1406 18.0469 20.7969L26.6406 15.6406C26.8125 15.4688 27.1562 15.4688 27.5 15.4688C27.8438 15.4688 28.1875 15.4688 28.3594 15.6406L36.9531 20.7969C37.4688 21.1406 37.8125 21.6562 37.8125 22.3438V32.6562C37.8125 33.3438 37.4688 33.8594 36.9531 34.2031L28.3594 39.3594C28.1875 39.5312 27.8438 39.5312 27.5 39.5312ZM20.625 31.625L27.5 35.75L34.375 31.625V23.2031L27.5 19.0781L20.625 23.2031V31.625Z" fill="#FCC92F"/>
<path d="M27.5 53.2812C27.1562 53.2812 26.9844 53.2812 26.6406 53.1094L6.01562 41.0781C5.5 40.7344 5.15625 40.2188 5.15625 39.5312V15.4688C5.15625 14.7812 5.5 14.2656 6.01562 13.9219L26.6406 1.89063C26.9844 1.71875 27.1562 1.71875 27.5 1.71875C27.8438 1.71875 28.0156 1.71875 28.3594 1.89063L48.9844 13.9219L47.2656 16.8438L27.5 5.5L8.59375 16.5V38.6719L27.5 49.6719L46.4062 38.6719V25.7812H49.8438V39.5312C49.8438 40.2188 49.5 40.7344 48.9844 41.0781L28.3594 53.1094C28.0156 53.2812 27.8438 53.2812 27.5 53.2812Z" fill="#FCC92F"/>
</svg>
